<?xml version="1.0" encoding="utf-8"?>
<!-- Generator: Adobe Illustrator 26.5.0, SVG Export Plug-In . SVG Version: 6.00 Build 0)  -->
<svg version="1.1" id="Layer_1" xmlns="http://www.w3.org/2000/svg" xmlns:xlink="http://www.w3.org/1999/xlink" x="0px" y="0px"
	 viewBox="0 0 128.9 98" style="enable-background:new 0 0 128.9 98;" xml:space="preserve">
<style type="text/css">
	.st0{fill:#1E64C8;}
</style>
<g>
	<path class="st0" d="M0,88.5c0-7.2,1.9-9.5,6.6-9.5c1.4,0,2.7,0.4,3.3,0.8v2.5c-0.6-0.4-2.1-0.8-3.1-0.8c-3.1,0-4.1,1-4.1,7.2
		c0,6,0.8,7.2,3.5,7.2c0.8,0,1.4-0.2,2.1-0.2v-6.2H5.4v-2.3h5.4v9.9C10.1,97.6,8,98,6.2,98C1.2,98,0,95.3,0,88.5z M13.6,79.5H22v2.3
		h-6v5.6h4.7v2.1h-4.7v6.2h6v2.3h-8.4C13.6,97.8,13.6,79.5,13.6,79.5z M24.9,79.5h2.9l5.8,14.4c-0.2-1.4-0.4-3.3-0.4-4.9v-9.7h2.5
		v18.1h-2.9L27,82.8c0.2,1.4,0.4,3.3,0.4,4.9v9.7h-2.5L24.9,79.5L24.9,79.5z M37.7,79.5h10.5v2.3h-3.9v16.1h-2.7V81.7h-3.9
		C37.7,81.7,37.7,79.5,37.7,79.5z M0.4,66.7V53.9h2.7v12.8c0,2.7,0.8,3.5,2.9,3.5c1.9,0,2.9-0.8,2.9-3.5V53.9h2.7v12.8
		c0,4.1-1.6,5.8-5.4,5.8C2.1,72.5,0.4,70.8,0.4,66.7z M14.6,53.9h2.9l5.8,14.4c-0.2-1.4-0.4-3.3-0.4-4.9v-9.7h2.5v18.3h-2.9
		l-5.8-14.4c0.2,1.4,0.4,3.3,0.4,4.9v9.5h-2.5C14.6,72.1,14.6,53.9,14.6,53.9z M29,53.9h2.7v18.1H29V53.9z M34,53.9h2.7l2.3,9.5
		c0.4,1.4,0.8,3.9,1,5.8c0.2-1.9,0.6-4.3,1-5.8l2.3-9.5h2.7l-4.7,18.1h-2.7L34,53.9z M48.2,53.9h8.4v2.3h-6v5.6h4.9v2.1h-4.7V70h6
		v2.1h-8.4V53.9H48.2z M59.7,53.9h4.1c3.3,0,5.8,1.2,5.8,5.4c0,2.9-1.4,4.3-3.1,4.9l3.9,7.8h-2.9L64,64.6h-1.6v7.4h-2.7L59.7,53.9
		L59.7,53.9z M62.2,56.2v6.4h1.4c2.1,0,3.3-0.4,3.3-3.3c0-2.7-1.4-3.1-3.3-3.1H62.2z M72.5,71.9v-2.5c0.6,0.4,1.9,0.8,3.1,0.8
		c1.6,0,2.9-0.6,2.9-2.5c0-1.4-0.8-2.3-1.9-3.3l-1.4-1.2c-1.6-1.4-2.7-2.5-2.7-4.9c0-2.9,1.9-4.7,5.4-4.7c1.2,0,2.5,0.4,2.9,0.6v2.3
		c-0.6-0.4-1.6-0.6-2.7-0.6c-1.6,0-2.9,0.6-2.9,2.5c0,1.4,0.8,2.3,1.9,3.3l1.4,1.2c1.6,1.4,2.7,2.5,2.7,4.9c0,2.9-1.9,4.7-5.4,4.7
		C74.3,72.5,73.1,72.1,72.5,71.9z M84,53.9h2.5v18.1h-2.7V53.9H84z M88.9,53.9h10.5v2.3h-3.9v15.9h-2.7V56h-3.9L88.9,53.9L88.9,53.9
		z M101.7,53.9h8.4v2.3h-6v5.6h4.9v2.1h-4.7V70h6v2.1h-8.4V53.9H101.7z M113.2,53.9h2.7v18.1h-2.7V53.9z M118.4,53.9h10.5v2.3H125
		v15.9h-2.7V56h-3.9C118.4,56,118.4,53.9,118.4,53.9z"/>
	<rect x="5.6" y="16.7" class="st0" width="2.5" height="16.7"/>
	<rect x="10.7" y="16.7" class="st0" width="2.5" height="16.7"/>
	<rect x="15.9" y="16.7" class="st0" width="2.5" height="16.7"/>
	<rect x="21" y="16.7" class="st0" width="2.5" height="16.7"/>
	<rect x="26.1" y="16.7" class="st0" width="2.5" height="16.7"/>
	<rect x="31.3" y="16.7" class="st0" width="2.5" height="16.7"/>
	<rect x="36.4" y="16.7" class="st0" width="2.5" height="16.7"/>
	<rect x="3.1" y="36" class="st0" width="38.5" height="2.5"/>
	<polygon class="st0" points="38.9,14 5.6,14 3.1,11.5 41.6,11.5 	"/>
	<rect x="0.4" y="41.2" class="st0" width="43.6" height="2.5"/>
	<polygon class="st0" points="22.2,0 0.4,7.8 0.4,10.3 22.2,2.5 44.1,10.3 44.1,7.8 	"/>
</g>
</svg>
